<svg version="1.1" xmlns="http://www.w3.org/2000/svg" viewBox="0 0 224.5521863419567 154.60187775875522" width="224.5521863419567" height="154.60187775875522"><defs><style class="style-fonts">@font-face{font-family:Virgil;src:url(https://excalidraw.com/Virgil.woff2)}@font-face{font-family:Cascadia;src:url(https://excalidraw.com/Cascadia.woff2)}</style></defs><g stroke-linecap="round"><g transform="translate(11.413207387326338 9.989927010200972) rotate(0 0.7865957114667026 67.31101186917664)"><path d="M0.95 0.69 C1.32 23.01, 1.48 112.42, 1.59 134.61 M-0.02 0.01 C0.29 21.89, 0.61 110.18, 0.78 132.67" stroke="#c8c8c8" stroke-width="3" fill="none"></path></g></g><mask></mask><g stroke-linecap="round"><g transform="translate(11.057802674211644 142.22289319872561) rotate(0 101.21829049676671 -0.49213214821378415)"><path d="M0.26 0.34 C34.02 0, 169.59 -1.12, 203.49 -1.32 M-1.06 -0.53 C32.48 -0.76, 168.65 -0.17, 202.7 -0.01" stroke="#c8c8c8" stroke-width="3" fill="none"></path></g></g><mask></mask><g stroke-linecap="round"><g transform="translate(11.762208411916845 141.06062373151235) rotate(0 29.38935676371227 -25.608736361654792)"><path d="M0.29 -0.43 C10.21 -8.95, 50.01 -42.25, 59.79 -50.79 M-1.01 -1.7 C8.77 -10.05, 49.27 -41.06, 59.11 -49.25" stroke="#c8c8c8" stroke-width="3" fill="none"></path></g></g><mask></mask><g stroke-linecap="round"><g transform="translate(70.12542562503154 90.2665663544633) rotate(0 19.419231670606678 5.139092269098342)"><path d="M0.52 0 C7.05 1.78, 32.98 8.39, 39.51 10.25 M-0.67 -1.04 C5.65 0.9, 31.81 9.07, 38.4 11.32" stroke="#c8c8c8" stroke-width="3" fill="none"></path></g></g><mask></mask><g stroke-linecap="round"><g transform="translate(109.87952398568746 102.72174053479125) rotate(0 40.763346385533055 -31.64760213454332)"><path d="M-0.31 -0.89 C13.24 -11.65, 68.2 -54.09, 81.84 -64.55 M1.73 1.25 C15.06 -9.3, 67.68 -51.87, 80.81 -63" stroke="#c8c8c8" stroke-width="3" fill="none"></path></g><g transform="translate(109.87952398568746 102.72174053479125) rotate(0 40.763346385533055 -31.64760213454332)"><path d="M64.11 -37.39 C70.85 -46.71, 77.57 -54.42, 80.84 -63.81 M65.23 -37.66 C68.55 -43.69, 72.16 -50.81, 80.09 -63.93" stroke="#c8c8c8" stroke-width="3" fill="none"></path></g><g transform="translate(109.87952398568746 102.72174053479125) rotate(0 40.763346385533055 -31.64760213454332)"><path d="M51.05 -53.22 C62.27 -57.08, 73.47 -59.36, 80.84 -63.81 M52.17 -53.49 C58.67 -55.66, 65.47 -58.9, 80.09 -63.93" stroke="#c8c8c8" stroke-width="3" fill="none"></path></g></g><mask></mask></svg>